# xmcd CD database file generated by OrangeCD 5.2
#
# Track frame offsets:
#	150
#	18776
#	37071
#	61245
#	77868
#	94595
#	111536
#	124133
#	135594
#	152525
#	168517
#	186281
#	201374
#	218507
#	228450
#	240606
#	259310
#	272736
#	294295
#	306287
#	334199
#
# Disc length: 4640 seconds
#
# Revision: 0
# Processed by: cddbd v1.5.1PL2 Copyright (c) Steve Scherf et al.
# Submitted via: OrangeCD 5.2
#
DISCID=30121e15
DTITLE=Various Artist - Try To Remember   Volume 1
DYEAR=2006
DGENRE=Dance
TTITLE0=The Dells - Oh What A Night
TTITLE1=Barry White - Can't Get Enough Of Your Love
TTITLE2=Jimmy Cliff - Reggae Night
TTITLE3=Tina Turner - Let's Stay Together
TTITLE4=Michael Jackson - Rock With You
TTITLE5=A Taste Of Honey - Boogie Oogie Oogie
TTITLE6=Four Tops - I Can't Help Myself (Sugar Pie, Honey Bunch) 
TTITLE7=Jr. Walker and The All Stars - What Does It Take (To Win Your Love)
TTITLE8=The Reflections - Three Steps From True Love
TTITLE9=The Pointer Sisters - Fire
TTITLE10=The Pointer Sisters - Slow Hand
TTITLE11=Ottawan - Hands Up Give Me Your Heart
TTITLE12=The Inner Circle - Sweat (A La La La La Long) 
TTITLE13=Bill Blacks Combo - Smokie   Part 2
TTITLE14=Hugh Masekela - Grazing In The Grass
TTITLE15=Smokey Robinson and The Miracles - Ooo Baby Baby (Live)
TTITLE16=The Temptations - My Girl
TTITLE17=The Temptations - Lady Soul
TTITLE18=Stevie Wonder - I Was Made To Love Her
TTITLE19=The Dells - Stay In My Corner
TTITLE20=Bill Doggett - Honky Tonk
EXTD=
EXTT0=
EXTT1=
EXTT2=
EXTT3=
EXTT4=
EXTT5=
EXTT6=
EXTT7=
EXTT8=
EXTT9=
EXTT10=
EXTT11=
EXTT12=
EXTT13=
EXTT14=
EXTT15=
EXTT16=
EXTT17=
EXTT18=
EXTT19=
EXTT20=
PLAYORDER=
